#!OML:ASF F:\VICON\USERDATA\INSTALL\rory3\rory3.ASF
:FULLY-SPECIFIED
:DEGREES
857
root -1.20418 18.1953 1.30827 -0.943615 0.832834 360.54
lowerback 8.36749 0.668123 0.128231
upperback 0.248969 0.917666 0.348033
thorax -4.43908 0.455028 0.178265
lowerneck -20.1031 -6.81056 -13.4584
upperneck 30.3955 -8.47963 9.63552
head 14.998 -3.9054 4.69211
rclavicle 6.67171e-015 -5.96354e-016
rhumerus -34.4194 -7.99972 -85.682
rradius 30.7272
rwrist 7.76125
rhand -14.4976 8.89415
rfingers 7.12502
rthumb 11.6493 -20.762
lclavicle 6.67171e-015 -5.96354e-016
lhumerus -36.4024 3.65297 84.7548
lradius 35.37
lwrist -4.42778
lhand -18.1388 24.5506
lfingers 7.12502
lthumb 8.13636 54.3739
rfemur -4.25269 -3.44235 23.0892
rtibia 21.4766
rfoot -10.4165 -13.8449
rtoes 0.889739
lfemur 2.61405 -1.81452 -20.2737
ltibia 6.55467
lfoot -3.82922 -0.266621
ltoes -8.21463
858
root -1.1976 18.1945 1.30563 -0.920742 0.831373 360.612
lowerback 8.336 0.660733 -0.00692064
upperback 0.263475 0.895556 0.365402
thorax -4.4086 0.447097 0.275394
lowerneck -20.3086 -6.82134 -13.4459
upperneck 30.548 -8.45003 9.54164
head 15.1035 -3.89997 4.65943
rclavicle -1.27968e-015 2.98177e-015
rhumerus -34.3303 -7.88321 -85.644
rradius 30.7374
rwrist 7.68797
rhand -14.4369 8.89295
rfingers 7.12502
rthumb 11.7078 -20.7599
lclavicle -1.27968e-015 2.98177e-015
lhumerus -36.3542 3.79613 84.758
lradius 35.3807
lwrist -4.60593
lhand -17.8742 24.2971
lfingers 7.12502
lthumb 8.39176 54.1104
rfemur -4.29701 -3.43565 22.9868
rtibia 21.4837
rfoot -10.3501 -13.8484
rtoes 1.00337
lfemur 2.53754 -1.81149 -20.3792
ltibia 6.66231
lfoot -3.86353 -0.253729
ltoes -7.82449
859
root -1.19159 18.1953 1.30288 -0.894165 0.852586 360.612
lowerback 8.33653 0.623403 -0.0381238
upperback 0.21571 0.842726 0.357634
thorax -4.45865 0.421552 0.290917
lowerneck -20.2873 -6.79361 -13.3949
upperneck 30.5848 -8.42719 9.52129
head 15.1076 -3.88824 4.64835
rclavicle 2.73329e-016 -1.98785e-016
rhumerus -34.3327 -7.91908 -85.6335
rradius 30.7129
rwrist 7.80561
rhand -14.4298 9.01682
rfingers 7.12502
rthumb 11.7147 -20.6356
lclavicle 2.73329e-016 -1.98785e-016
lhumerus -36.4588 3.99247 84.6573
lradius 35.4447
lwrist -4.80034
lhand -17.6459 24.3797
lfingers 7.12502
lthumb 8.61211 54.184
rfemur -4.36971 -3.4629 22.9672
rtibia 21.5266
rfoot -10.2879 -13.8677
rtoes 0.647463
lfemur 2.53491 -1.83204 -20.4007
ltibia 6.59289
lfoot -3.79279 -0.256475
ltoes -7.94339
860
root -1.18386 18.197 1.29854 -0.858715 0.883738 360.615
lowerback 8.36048 0.578745 -0.0567541
upperback 0.141043 0.781409 0.349155
thorax -4.54962 0.39158 0.299313
lowerneck -20.225 -6.76787 -13.3848
upperneck 30.6291 -8.41002 9.53259
head 15.1113 -3.88088 4.6578
rclavicle -1.11941e-014 9.14409e-015
rhumerus -34.4312 -7.92535 -85.6165
rradius 30.808
rwrist 7.86339
rhand -14.3929 8.94382
rfingers 7.12502
rthumb 11.7502 -20.7066
lclavicle -1.11941e-014 9.14409e-015
lhumerus -36.6213 4.08599 84.5871
lradius 35.5818
lwrist -4.92482
lhand -17.6852 24.4515
lfingers 7.12502
lthumb 8.57414 54.2574
rfemur -4.44988 -3.48103 22.9349
rtibia 21.5953
rfoot -10.3422 -13.8725
rtoes 0.850484
lfemur 2.57463 -1.86207 -20.4266
ltibia 6.38925
lfoot -3.69495 -0.30162
ltoes -7.84136
861
root -1.17616 18.197 1.2956 -0.835637 0.928412 360.716
lowerback 8.30863 0.562775 -0.195717
upperback 0.13326 0.746555 0.343867
thorax -4.53009 0.37733 0.37666
lowerneck -20.2164 -6.76022 -13.3643
upperneck 30.6074 -8.38464 9.47439
head 15.0906 -3.87538 4.6332
rclavicle -2.2736e-015 1.13307e-014
rhumerus -34.4257 -7.80169 -85.5883
rradius 30.8884
rwrist 7.71657
rhand -14.5058 8.77881
rfingers 7.12502
rthumb 11.6413 -20.8778
lclavicle -2.2736e-015 1.13307e-014
lhumerus -36.6826 4.10707 84.6046
lradius 35.6431
lwrist -5.00045
lhand -18.0737 23.4276
lfingers 7.12502
lthumb 8.19925 53.2485
rfemur -4.50336 -3.46057 22.795
rtibia 21.6505
rfoot -10.4154 -13.9241
rtoes 1.31862
lfemur 2.61496 -1.90374 -20.5669
ltibia 6.23797
lfoot -3.62861 -0.299458
ltoes -7.74165
862
root -1.17223 18.1967 1.29287 -0.834558 0.991447 360.785
lowerback 8.30281 0.563759 -0.335209
upperback 0.105716 0.734369 0.339734
thorax -4.55714 0.374392 0.452193
lowerneck -20.1186 -6.76535 -13.3427
upperneck 30.5869 -8.39694 9.43066
head 15.0572 -3.88621 4.60817
rclavicle -5.91384e-015 -5.96354e-015
rhumerus -34.4219 -7.80083 -85.5354
rradius 30.911
rwrist 7.7799
rhand -14.5214 8.41755
rfingers 7.12502
rthumb 11.6263 -21.2399
lclavicle -5.91384e-015 -5.96354e-015
lhumerus -36.72 4.03062 84.6236
lradius 35.5904
lwrist -4.93431
lhand -18.2121 22.8506
lfingers 7.12502
lthumb 8.06563 52.6767
rfemur -4.52824 -3.47855 22.7089
rtibia 21.6796
rfoot -10.4572 -13.9727
rtoes 1.19158
lfemur 2.62038 -1.96516 -20.6564
ltibia 6.20323
lfoot -3.62454 -0.281967
ltoes -7.86097
863
root -1.16953 18.1949 1.29039 -0.887119 1.11846 360.803
lowerback 8.36544 0.538138 -0.433579
upperback 0.0968677 0.69157 0.359352
thorax -4.60252 0.3557 0.532472
lowerneck -20.0851 -6.7667 -13.3881
upperneck 30.6186 -8.40046 9.46121
head 15.0694 -3.89036 4.63039
rclavicle 6.37353e-015 -1.23246e-014
rhumerus -34.3648 -7.98515 -85.4048
rradius 30.9103
rwrist 8.15086
rhand -14.2241 7.98311
rfingers 7.12502
rthumb 11.913 -21.6579
lclavicle 6.37353e-015 -1.23246e-014
lhumerus -36.7683 3.90542 84.6575
lradius 35.6086
lwrist -4.68591
lhand -18.0555 23.1635
lfingers 7.12502
lthumb 8.21679 52.9837
rfemur -4.49333 -3.54256 22.6805
rtibia 21.6765
rfoot -10.4438 -14.0375
rtoes 0.611306
lfemur 2.63837 -2.09152 -20.6817
ltibia 6.27594
lfoot -3.6993 -0.29566
ltoes -7.61307
864
root -1.16459 18.1928 1.28911 -0.976122 1.17456 360.703
lowerback 8.41088 0.517386 -0.351247
upperback 0.141602 0.672315 0.371564
thorax -4.58037 0.344339 0.501021
lowerneck -20.1429 -6.75534 -13.3783
upperneck 30.6421 -8.39685 9.50601
head 15.0947 -3.88045 4.64936
rclavicle 1.45858e-014 -3.97569e-015
rhumerus -34.2497 -8.17795 -85.3385
rradius 30.8524
rwrist 8.13696
rhand -14.0493 8.07222
rfingers 7.12502
rthumb 12.0816 -21.559
lclavicle 1.45858e-014 -3.97569e-015
lhumerus -36.7134 3.80578 84.6412
lradius 35.5994
lwrist -4.52971
lhand -17.978 23.525
lfingers 7.12502
lthumb 8.2916 53.3423
rfemur -4.41065 -3.54764 22.78
rtibia 21.6388
rfoot -10.3255 -14.1409
rtoes 0.100656
lfemur 2.653 -2.14929 -20.5756
ltibia 6.44087
lfoot -3.79244 -0.325331
ltoes -7.16898
865
root -1.15788 18.1923 1.28762 -1.03088 1.19711 360.631
lowerback 8.43914 0.496749 -0.256754
upperback 0.164325 0.653175 0.355485
thorax -4.57106 0.332565 0.433401
lowerneck -20.1095 -6.74745 -13.3558
upperneck 30.5851 -8.4031 9.53248
head 15.0619 -3.87724 4.65358
rclavicle -2.11209e-015 1.09332e-014
rhumerus -34.2109 -8.17605 -85.3722
rradius 30.7869
rwrist 7.69491
rhand -14.2745 8.70816
rfingers 7.12502
rthumb 11.8644 -20.9357
lclavicle -2.11209e-015 1.09332e-014
lhumerus -36.6262 3.76618 84.5889
lradius 35.4804
lwrist -4.51557
lhand -17.9939 23.6795
lfingers 7.12502
lthumb 8.27623 53.4973
rfemur -4.33542 -3.45986 22.8494
rtibia 21.5742
rfoot -10.1775 -14.2508
rtoes 0.0457229
lfemur 2.57683 -2.17353 -20.516
ltibia 6.67933
lfoot -3.89821 -0.287043
ltoes -7.19727
866
root -1.15146 18.1916 1.28546 -1.04684 1.22675 360.632
lowerback 8.47972 0.491843 -0.251648
upperback 0.133609 0.645244 0.31504
thorax -4.62526 0.328196 0.389051
lowerneck -20.091 -6.76112 -13.3086
upperneck 30.6279 -8.46876 9.58919
head 15.0882 -3.89317 4.65887
rclavicle 7.26806e-015 -1.25234e-014
rhumerus -34.2952 -8.30244 -85.3479
rradius 30.7921
rwrist 7.61812
rhand -14.6169 9.17762
rfingers 7.12502
rthumb 11.5342 -20.485
lclavicle 7.26806e-015 -1.25234e-014
lhumerus -36.6309 3.78693 84.4707
lradius 35.3332
lwrist -4.71405
lhand -17.8896 23.7114
lfingers 7.12502
lthumb 8.37689 53.5253
rfemur -4.29134 -3.42101 22.8322
rtibia 21.5087
rfoot -10.1314 -14.3154
rtoes 0.363273
lfemur 2.44577 -2.20387 -20.5369
ltibia 6.92765
lfoot -3.98528 -0.256623
ltoes -7.36512
